<svg width="15" height="14" viewBox="0 0 15 14" fill="none" xmlns="http://www.w3.org/2000/svg">
<g clip-path="url(#clip0_1928_6870)">
<path fill-rule="evenodd" clip-rule="evenodd" d="M8.24899 3.89452C7.84725 3.92503 7.38307 3.95544 6.91964 4.01636C6.20925 4.1102 5.49886 4.2338 4.91283 4.51216C3.76954 4.9758 2.99658 5.96487 2.99658 7.41672C2.99658 9.24164 4.17039 10.1682 5.6545 10.1682C6.14844 10.1682 6.55007 10.1056 6.91964 10.0142C7.50819 9.828 8.00125 9.48795 8.58816 8.86944C8.9281 9.33308 9.02194 9.55052 9.60808 10.0446C9.76285 10.1055 9.91761 10.1055 10.0402 10.014C10.4114 9.70441 11.0609 9.14769 11.4001 8.83892C11.5548 8.71544 11.5243 8.52928 11.4305 8.37605C11.0913 7.94292 10.7506 7.57148 10.7506 6.73717V3.95544C10.7506 2.78108 10.8445 1.69892 9.9793 0.896C9.2688 0.247844 8.15591 0 7.29075 0H6.91953C5.34486 0.0914375 3.67722 0.771641 3.30513 2.71928C3.24344 2.96712 3.42938 3.05944 3.55286 3.08984L5.28307 3.30641C5.46824 3.27512 5.56132 3.12025 5.59172 2.96712C5.74561 2.28692 6.30211 1.94677 6.91943 1.8842H7.04368C7.41489 1.8842 7.81663 2.03908 8.03232 2.34872C8.27928 2.71928 8.24877 3.2142 8.24877 3.64744V3.89452H8.24899ZM7.90894 7.57148C7.69249 8.00384 7.32127 8.2822 6.91953 8.37605C6.85861 8.37605 6.76564 8.40656 6.67257 8.40656C5.99346 8.40656 5.59183 7.88112 5.59183 7.10872C5.59183 6.11888 6.17874 5.656 6.91953 5.43856C7.32127 5.34636 7.78546 5.31508 8.24888 5.31508V5.68652C8.24899 6.39712 8.27939 6.95308 7.90894 7.57148Z" fill="#343B45"/>
<path fill-rule="evenodd" clip-rule="evenodd" d="M12.4726 11.3358C12.4026 11.335 12.3311 11.3515 12.2644 11.3828C12.1895 11.4124 12.1129 11.447 12.0405 11.4775L11.9343 11.522L11.796 11.5771V11.5788C10.2938 12.1882 8.71582 12.5456 7.25556 12.5769C7.20207 12.5786 7.14772 12.5786 7.09587 12.5786C4.79932 12.5802 2.92584 11.5146 1.03595 10.4646C0.970105 10.43 0.901746 10.4118 0.835902 10.4118C0.751136 10.4118 0.663855 10.444 0.600527 10.5033C0.53709 10.5634 0.499246 10.6499 0.500011 10.738C0.499136 10.8525 0.560933 10.9578 0.64734 11.0262C2.42118 12.5671 4.36554 13.9984 6.98059 14C7.03167 14 7.08351 13.9984 7.13536 13.9975C8.79895 13.9604 10.6798 13.398 12.14 12.4806L12.1491 12.4748C12.3401 12.3603 12.531 12.2302 12.7113 12.0861C12.8233 12.0029 12.9006 11.8728 12.9006 11.7377C12.8957 11.4982 12.6924 11.3358 12.4726 11.3358ZM14.4984 10.4844V10.4835C14.4918 10.3377 14.4613 10.2266 14.4004 10.1344L14.3938 10.1253L14.3864 10.1162C14.3247 10.0487 14.2654 10.0231 14.2012 9.99513C14.0094 9.92098 13.7303 9.88149 13.3946 9.88062C13.1534 9.88062 12.8875 9.90369 12.62 9.9621L12.6191 9.94394L12.3499 10.0337L12.345 10.0363L12.1927 10.0857V10.0923C12.0141 10.1664 11.8519 10.2586 11.7013 10.3681C11.6075 10.4381 11.5302 10.5312 11.526 10.6736C11.5235 10.751 11.5631 10.8399 11.628 10.8927C11.6931 10.9454 11.7688 10.9635 11.8354 10.9635C11.8511 10.9635 11.8658 10.9627 11.8791 10.9603L11.8922 10.9594L11.902 10.9577C12.0337 10.9297 12.2256 10.9108 12.4502 10.8795C12.6428 10.8581 12.8469 10.8425 13.024 10.8425C13.1491 10.8416 13.2619 10.8507 13.3392 10.8672C13.3779 10.8754 13.4067 10.8853 13.4223 10.8935C13.4281 10.8952 13.4322 10.8977 13.4347 10.8993C13.438 10.9101 13.4429 10.9381 13.4421 10.9768C13.4438 11.125 13.3812 11.4001 13.2948 11.6686C13.2108 11.9371 13.1088 12.2064 13.0413 12.3851C13.0248 12.4262 13.0142 12.4716 13.0142 12.5209C13.0125 12.5926 13.0422 12.6799 13.1047 12.7375C13.1656 12.7951 13.2446 12.8182 13.3105 12.8182H13.3137C13.4125 12.8173 13.4965 12.7779 13.5689 12.7211C14.2521 12.1067 14.49 11.1251 14.4999 10.5725L14.4984 10.4844Z" fill="#FF9A00"/>
</g>
<defs>
<clipPath id="clip0_1928_6870">
<rect width="14" height="14" fill="white" transform="translate(0.5)"/>
</clipPath>
</defs>
</svg>
