<svg width="20" height="20" viewBox="0 0 20 20" fill="none" xmlns="http://www.w3.org/2000/svg">
<path d="M3.33337 17.5V13.3333C3.33337 12.875 3.49657 12.4826 3.82296 12.1562C4.14935 11.8299 4.54171 11.6667 5.00004 11.6667H15C15.4584 11.6667 15.8507 11.8299 16.1771 12.1562C16.5035 12.4826 16.6667 12.875 16.6667 13.3333V17.5H3.33337ZM7.50004 10.8333C6.34726 10.8333 5.36462 10.4271 4.55212 9.61458C3.73962 8.80208 3.33337 7.81944 3.33337 6.66667C3.33337 5.51389 3.73962 4.53125 4.55212 3.71875C5.36462 2.90625 6.34726 2.5 7.50004 2.5H12.5C13.6528 2.5 14.6355 2.90625 15.448 3.71875C16.2605 4.53125 16.6667 5.51389 16.6667 6.66667C16.6667 7.81944 16.2605 8.80208 15.448 9.61458C14.6355 10.4271 13.6528 10.8333 12.5 10.8333H7.50004ZM5.00004 15.8333H15V13.3333H5.00004V15.8333ZM7.50004 9.16667H12.5C13.1945 9.16667 13.7848 8.92361 14.2709 8.4375C14.757 7.95139 15 7.36111 15 6.66667C15 5.97222 14.757 5.38194 14.2709 4.89583C13.7848 4.40972 13.1945 4.16667 12.5 4.16667H7.50004C6.8056 4.16667 6.21532 4.40972 5.72921 4.89583C5.2431 5.38194 5.00004 5.97222 5.00004 6.66667C5.00004 7.36111 5.2431 7.95139 5.72921 8.4375C6.21532 8.92361 6.8056 9.16667 7.50004 9.16667ZM7.50004 7.5C7.73615 7.5 7.93407 7.42014 8.09379 7.26042C8.25351 7.10069 8.33337 6.90278 8.33337 6.66667C8.33337 6.43056 8.25351 6.23264 8.09379 6.07292C7.93407 5.91319 7.73615 5.83333 7.50004 5.83333C7.26393 5.83333 7.06601 5.91319 6.90629 6.07292C6.74657 6.23264 6.66671 6.43056 6.66671 6.66667C6.66671 6.90278 6.74657 7.10069 6.90629 7.26042C7.06601 7.42014 7.26393 7.5 7.50004 7.5ZM12.5 7.5C12.7362 7.5 12.9341 7.42014 13.0938 7.26042C13.2535 7.10069 13.3334 6.90278 13.3334 6.66667C13.3334 6.43056 13.2535 6.23264 13.0938 6.07292C12.9341 5.91319 12.7362 5.83333 12.5 5.83333C12.2639 5.83333 12.066 5.91319 11.9063 6.07292C11.7466 6.23264 11.6667 6.43056 11.6667 6.66667C11.6667 6.90278 11.7466 7.10069 11.9063 7.26042C12.066 7.42014 12.2639 7.5 12.5 7.5Z" fill="white"/>
</svg>
