<svg width="29" height="29" viewBox="0 0 29 29" fill="none" xmlns="http://www.w3.org/2000/svg">
<g clip-path="url(#clip0_1367_2013)">
<path d="M28.5 14.668C28.5 6.93598 22.232 0.667969 14.5 0.667969C6.76801 0.667969 0.5 6.93598 0.5 14.668C0.5 21.6557 5.61957 27.4476 12.3125 28.4979V18.7148H8.75781V14.668H12.3125V11.5836C12.3125 8.07484 14.4027 6.13672 17.6005 6.13672C19.1318 6.13672 20.7344 6.41016 20.7344 6.41016V9.85547H18.9691C17.23 9.85547 16.6875 10.9347 16.6875 12.043V14.668H20.5703L19.9496 18.7148H16.6875V28.4979C23.3804 27.4476 28.5 21.6557 28.5 14.668Z" fill="#1877F2"/>
<path d="M19.9496 18.7148L20.5703 14.668H16.6875V12.043C16.6875 10.9358 17.23 9.85547 18.9691 9.85547H20.7344V6.41016C20.7344 6.41016 19.1323 6.13672 17.6005 6.13672C14.4027 6.13672 12.3125 8.07484 12.3125 11.5836V14.668H8.75781V18.7148H12.3125V28.4979C13.762 28.7247 15.238 28.7247 16.6875 28.4979V18.7148H19.9496Z" fill="white"/>
</g>
<defs>
<clipPath id="clip0_1367_2013">
<rect width="28" height="28" fill="white" transform="translate(0.5 0.667969)"/>
</clipPath>
</defs>
</svg>
