<svg width="29" height="29" viewBox="0 0 29 29" fill="none" xmlns="http://www.w3.org/2000/svg">
<path d="M25.9404 12.383H25.0007V12.3346H14.5007V17.0012H21.0941C20.1322 19.7178 17.5474 21.6679 14.5007 21.6679C10.6349 21.6679 7.50065 18.5336 7.50065 14.6679C7.50065 10.8021 10.6349 7.66789 14.5007 7.66789C16.2851 7.66789 17.9085 8.34105 19.1446 9.44064L22.4445 6.14072C20.3608 4.1988 17.5737 3.00122 14.5007 3.00122C8.05773 3.00122 2.83398 8.22497 2.83398 14.6679C2.83398 21.1108 8.05773 26.3346 14.5007 26.3346C20.9436 26.3346 26.1673 21.1108 26.1673 14.6679C26.1673 13.8856 26.0868 13.1221 25.9404 12.383Z" fill="#FFC107"/>
<path d="M4.17773 9.23764L8.01082 12.0487C9.04798 9.48089 11.5598 7.66789 14.4992 7.66789C16.2837 7.66789 17.9071 8.34105 19.1432 9.44064L22.4431 6.14072C20.3594 4.1988 17.5722 3.00122 14.4992 3.00122C10.0181 3.00122 6.1319 5.53114 4.17773 9.23764Z" fill="#FF3D00"/>
<path d="M14.4995 26.3345C17.513 26.3345 20.2512 25.1813 22.3214 23.3059L18.7106 20.2504C17.5393 21.1376 16.0833 21.6679 14.4995 21.6679C11.465 21.6679 8.88845 19.733 7.91778 17.0327L4.11328 19.964C6.04411 23.7422 9.96528 26.3345 14.4995 26.3345Z" fill="#4CAF50"/>
<path d="M25.9398 12.3831H25V12.3347H14.5V17.0014H21.0934C20.6314 18.3063 19.792 19.4316 18.7093 20.2511C18.7099 20.2506 18.7105 20.2506 18.7111 20.25L22.3219 23.3055C22.0664 23.5376 26.1667 20.5014 26.1667 14.6681C26.1667 13.8858 26.0862 13.1222 25.9398 12.3831Z" fill="#1976D2"/>
</svg>
